<?xml version="1.0" encoding="UTF-8"?>
<svg id="Layer_1" data-name="Layer 1" xmlns="http://www.w3.org/2000/svg" viewBox="0 0 746.6 100">
  <path d="M40.72,11.76c1.76-1.39,3.67-2.09,5.71-2.09,3.71,0,6.18,1.49,7.38,4.46l.84,1.81,7.1,.28c7.24,.28,12.93,1.81,17.06,4.6,4.13,2.79,6.2,6.46,6.2,11.01,0,3.34-1.14,6.18-3.41,8.5-2.28,2.32-5.92,4.41-10.93,6.27l-5.29,1.95,2.51,.56c2.79,.56,7.11,1.53,12.96,2.92,10.31,2.42,17.02,4.32,20.13,5.71,3.11,1.39,4.9,3.25,5.36,5.57,.09,.37,.14,.93,.14,1.67,0,2.04-.63,3.72-1.88,5.02-1.25,1.3-2.95,1.95-5.08,1.95-1.95,0-3.16-.23-3.62-.7-1.11-1.11-9.89-3.48-26.33-7.11-4.55-1.02-11.35-2.34-20.41-3.97-9.05-1.62-14.09-2.44-15.11-2.44-1.39,0-2.97,4.88-4.74,14.63-.56,3.16-1.16,5.34-1.81,6.55-1.39,1.95-3.34,2.92-5.85,2.92-1.86,0-3.53-.65-5.02-1.95-1.21-1.11-1.81-2.41-1.81-3.9,0-1.3,.05-2.46,.14-3.48,.19-3.99,.74-7.61,1.67-10.87,.74-2.97,1.11-4.83,1.11-5.57,0-1.02-.42-1.53-1.25-1.53-.93,0-1.76-.65-2.51-1.95-.74-1.3-1.11-2.74-1.11-4.32,0-4.83,2.6-7.24,7.8-7.24h2.79l3.9-8.08c5.2-10.77,9.66-17.83,13.37-21.17Zm25.77,19.36c-1.67-.56-5.01-.84-10.03-.84-3.9,0-6.41,.19-7.52,.56-.93,.28-2.21,1.21-3.83,2.79-1.63,1.58-2.81,3.06-3.55,4.46-.28,.65-.19,.98,.28,.98,.28,0,1.02-.09,2.23-.28,2.41-.37,5.99-1.16,10.73-2.37,4.74-1.21,8.17-2.23,10.31-3.06l3.9-1.53-2.51-.7Z"/>
  <path d="M134.75,18.73c1.39-1.39,3.06-2.09,5.02-2.09s3.55,.61,5.08,1.81c1.53,1.21,2.48,2.79,2.86,4.74,.37,1.86,.65,2.79,.84,2.79s3.16-.51,8.92-1.53c5.85-1.02,12.54-1.53,20.06-1.53h4.88c3.16,0,5.27,.09,6.34,.28,1.07,.19,2.35,.7,3.83,1.53,2.6,1.39,4.5,2.97,5.71,4.74,.93,1.39,1.51,2.53,1.74,3.41,.23,.88,.35,2.58,.35,5.08s-.14,4.34-.42,5.22c-.28,.88-1.07,2.3-2.37,4.25-4.27,6.13-13.03,12.61-26.26,19.43-13.23,6.83-25.93,11.4-38.1,13.72-3.9,.84-6.46,1.77-7.66,2.79-1.58,1.58-3.44,2.37-5.57,2.37-.47,0-1.07-.09-1.81-.28-.93-.28-2.58-1.48-4.95-3.62-2.37-2.14-3.97-3.9-4.8-5.29-1.11-1.58-1.67-3.62-1.67-6.13,0-2.23,.53-4.2,1.6-5.92,1.07-1.72,2.53-2.76,4.39-3.13,1.02-.19,1.67-.53,1.95-1.05,.28-.51,.6-1.79,.98-3.83,.28-1.39,.74-5.11,1.39-11.14,.37-4.08,1-6.85,1.88-8.29,.88-1.44,2.76-2.81,5.64-4.11,2.14-.93,3.46-1.72,3.97-2.37,.51-.65,1.28-2.23,2.3-4.74,1.39-3.53,2.69-5.9,3.9-7.1Zm48.9,19.92c0-.46-.93-.7-2.79-.7h-2.37c-4.27,.19-7.75,.42-10.45,.7-3.16,.47-8.06,1.37-14.7,2.72-6.64,1.35-10.56,2.25-11.77,2.72-.74,.37-1.44,1.16-2.09,2.37-.65,1.21-1.76,3.72-3.34,7.52-2.42,6.22-3.62,9.52-3.62,9.89s.23,.56,.7,.56c.74,0,4.88-1.25,12.4-3.76,7.99-2.79,16.32-6.64,25-11.56,8.68-4.92,13.02-8.4,13.02-10.45Z"/>
  <path d="M360,12.6c.65-.28,1.44-.42,2.37-.42,2.32,0,4.09,.74,5.29,2.23,1.02,1.3,1.53,2.6,1.53,3.9,0,1.21-.61,3.76-1.81,7.66-2.6,7.8-5.02,16.49-7.24,26.05v.14l-.14,.28c0,.37,.32,.56,.98,.56,.93,0,3.29-.46,7.1-1.39,3.25-.74,5.48-1.11,6.69-1.11,1.67,0,3.11,.65,4.32,1.95,1.11,1.11,1.67,2.56,1.67,4.32,0,2.42-.83,4.18-2.51,5.29-.74,.47-3.5,1.25-8.29,2.37-4.78,1.11-8.52,1.86-11.21,2.23-1.58,.09-2.56,.28-2.93,.56-.37,.28-.74,1.02-1.11,2.23-.47,1.67-1.53,4.23-3.2,7.66-1.3,2.88-2.46,4.78-3.48,5.71-1.02,.93-2.46,1.39-4.32,1.39-1.3,0-2.51-.37-3.62-1.11-1.11-.74-3.16-2.65-6.13-5.71-2.79-2.79-5.15-4.83-7.11-6.13-1.95-1.3-4.6-2.55-7.94-3.76l-3.06-.98-6.83,6.13c-6.96,6.41-10.63,9.8-11.01,10.17-3.25,3.16-5.76,4.74-7.52,4.74-.84,0-1.72-.23-2.65-.7-2.42-1.3-3.62-3.34-3.62-6.13,0-1.3,.32-2.37,.98-3.2,.65-.83,2.93-3.16,6.83-6.96,4.92-4.74,7.38-7.47,7.38-8.22,0-.28-.05-.46-.14-.56-.37-.65-.56-1.48-.56-2.51,0-2.79,1.16-4.78,3.48-5.99,.93-.56,2.74-.84,5.43-.84h3.9l3.9-3.34c7.61-6.87,17.55-15,29.81-24.38,3.81-2.88,7.1-5.62,9.89-8.22,2.41-2.32,4.04-3.62,4.88-3.9Zm-9.47,25.63c.19-.56,.14-.84-.14-.84-.37,0-3.76,2.69-10.17,8.08l-9.61,7.8,7.52,.42c1.67,.09,3.48,.14,5.43,.14,1.58,0,2.41-.09,2.51-.28,.56-.56,2.04-5.66,4.46-15.32Z"/>
  <path d="M409.03,18.73c1.39-1.39,3.06-2.09,5.01-2.09s3.55,.61,5.08,1.81c1.53,1.21,2.48,2.79,2.86,4.74,.37,1.86,.65,2.79,.83,2.79s3.16-.51,8.92-1.53c5.85-1.02,12.54-1.53,20.06-1.53h4.88c3.16,0,5.27,.09,6.34,.28,1.07,.19,2.35,.7,3.83,1.53,2.6,1.39,4.5,2.97,5.71,4.74,.93,1.39,1.51,2.53,1.74,3.41,.23,.88,.35,2.58,.35,5.08s-.14,4.34-.42,5.22c-.28,.88-1.07,2.3-2.37,4.25-4.27,6.13-13.02,12.61-26.26,19.43-13.23,6.83-25.93,11.4-38.1,13.72-3.9,.84-6.45,1.77-7.66,2.79-1.58,1.58-3.44,2.37-5.57,2.37-.46,0-1.07-.09-1.81-.28-.93-.28-2.58-1.48-4.95-3.62-2.37-2.14-3.97-3.9-4.81-5.29-1.11-1.58-1.67-3.62-1.67-6.13,0-2.23,.53-4.2,1.6-5.92,1.06-1.72,2.53-2.76,4.39-3.13,1.02-.19,1.67-.53,1.95-1.05,.28-.51,.61-1.79,.98-3.83,.28-1.39,.74-5.11,1.39-11.14,.37-4.08,1-6.85,1.88-8.29,.88-1.44,2.76-2.81,5.64-4.11,2.13-.93,3.46-1.72,3.97-2.37,.51-.65,1.28-2.23,2.3-4.74,1.39-3.53,2.69-5.9,3.9-7.1Zm48.89,19.92c0-.46-.93-.7-2.79-.7h-2.37c-4.27,.19-7.75,.42-10.45,.7-3.16,.47-8.06,1.37-14.7,2.72-6.64,1.35-10.57,2.25-11.77,2.72-.75,.37-1.44,1.16-2.09,2.37-.65,1.21-1.76,3.72-3.34,7.52-2.42,6.22-3.62,9.52-3.62,9.89s.23,.56,.7,.56c.74,0,4.88-1.25,12.4-3.76,7.99-2.79,16.32-6.64,25-11.56,8.68-4.92,13.02-8.4,13.02-10.45Z"/>
  <path d="M502.92,18.73c1.39-1.39,3.06-2.09,5.01-2.09s3.55,.61,5.08,1.81c1.53,1.21,2.48,2.79,2.86,4.74,.37,1.86,.65,2.79,.83,2.79s3.16-.51,8.92-1.53c5.85-1.02,12.54-1.53,20.06-1.53h4.88c3.16,0,5.27,.09,6.34,.28,1.07,.19,2.35,.7,3.83,1.53,2.6,1.39,4.5,2.97,5.71,4.74,.93,1.39,1.51,2.53,1.74,3.41,.23,.88,.35,2.58,.35,5.08s-.14,4.34-.42,5.22c-.28,.88-1.07,2.3-2.37,4.25-4.27,6.13-13.02,12.61-26.26,19.43-13.24,6.83-25.94,11.4-38.1,13.72-3.9,.84-6.45,1.77-7.66,2.79-1.58,1.58-3.44,2.37-5.57,2.37-.46,0-1.07-.09-1.81-.28-.93-.28-2.58-1.48-4.95-3.62-2.37-2.14-3.97-3.9-4.81-5.29-1.11-1.58-1.67-3.62-1.67-6.13,0-2.23,.53-4.2,1.6-5.92,1.06-1.72,2.53-2.76,4.39-3.13,1.02-.19,1.67-.53,1.95-1.05,.28-.51,.6-1.79,.98-3.83,.28-1.39,.74-5.11,1.39-11.14,.37-4.08,1-6.85,1.88-8.29,.88-1.44,2.76-2.81,5.64-4.11,2.13-.93,3.46-1.72,3.97-2.37,.51-.65,1.28-2.23,2.3-4.74,1.39-3.53,2.69-5.9,3.9-7.1Zm48.89,19.92c0-.46-.93-.7-2.79-.7h-2.37c-4.27,.19-7.75,.42-10.45,.7-3.16,.47-8.06,1.37-14.7,2.72-6.64,1.35-10.57,2.25-11.77,2.72-.74,.37-1.44,1.16-2.09,2.37-.65,1.21-1.77,3.72-3.34,7.52-2.42,6.22-3.62,9.52-3.62,9.89s.23,.56,.69,.56c.74,0,4.88-1.25,12.4-3.76,7.99-2.79,16.32-6.64,25.01-11.56,8.68-4.92,13.02-8.4,13.02-10.45Z"/>
  <path d="M596.67,11.76c1.76-1.39,3.67-2.09,5.71-2.09,3.71,0,6.18,1.49,7.38,4.46l.83,1.81,7.11,.28c7.24,.28,12.93,1.81,17.06,4.6,4.13,2.79,6.2,6.46,6.2,11.01,0,3.34-1.14,6.18-3.41,8.5-2.28,2.32-5.92,4.41-10.94,6.27l-5.29,1.95,2.51,.56c2.79,.56,7.1,1.53,12.95,2.92,10.31,2.42,17.02,4.32,20.13,5.71,3.11,1.39,4.9,3.25,5.36,5.57,.09,.37,.14,.93,.14,1.67,0,2.04-.63,3.72-1.88,5.02-1.25,1.3-2.95,1.95-5.08,1.95-1.95,0-3.16-.23-3.62-.7-1.12-1.11-9.89-3.48-26.33-7.11-4.55-1.02-11.35-2.34-20.41-3.97-9.06-1.62-14.09-2.44-15.12-2.44-1.39,0-2.97,4.88-4.74,14.63-.56,3.16-1.16,5.34-1.81,6.55-1.39,1.95-3.34,2.92-5.85,2.92-1.86,0-3.53-.65-5.01-1.95-1.21-1.11-1.81-2.41-1.81-3.9,0-1.3,.05-2.46,.14-3.48,.18-3.99,.74-7.61,1.67-10.87,.74-2.97,1.11-4.83,1.11-5.57,0-1.02-.42-1.53-1.25-1.53-.93,0-1.76-.65-2.51-1.95-.75-1.3-1.11-2.74-1.11-4.32,0-4.83,2.6-7.24,7.8-7.24h2.79l3.9-8.08c5.2-10.77,9.66-17.83,13.37-21.17Zm25.77,19.36c-1.67-.56-5.01-.84-10.03-.84-3.9,0-6.41,.19-7.52,.56-.93,.28-2.21,1.21-3.83,2.79-1.63,1.58-2.81,3.06-3.55,4.46-.28,.65-.19,.98,.28,.98,.28,0,1.02-.09,2.23-.28,2.41-.37,5.99-1.16,10.73-2.37,4.74-1.21,8.17-2.23,10.31-3.06l3.9-1.53-2.51-.7Z"/>
  <path d="M682.2,14.83c0,.93-.93,4.32-2.79,10.17-1.86,5.85-2.79,9.24-2.79,10.17,0,1.02,.11,1.63,.35,1.81,.23,.19,.81,.19,1.74,0,3.34-.74,9.38-3.67,18.11-8.78,7.43-4.36,13.51-10.08,18.25-17.13,3.43-5.02,6.22-8.08,8.36-9.19,.65-.46,1.62-.7,2.93-.7,1.58,0,3.06,.49,4.46,1.46,1.39,.97,2.27,2.21,2.65,3.69,.19,1.11,.28,1.95,.28,2.51,0,2.6-2.69,10.31-8.08,23.12-1.86,4.46-4.55,11.1-8.08,19.92-1.95,5.11-3.97,11.17-6.06,18.18-2.09,7.01-3.13,11.26-3.13,12.75,0,1.58-.51,3.16-1.53,4.74-.93,1.39-1.95,3.11-3.07,5.15-2.04,4.09-4.64,6.13-7.8,6.13-3.34,0-5.53-1.49-6.55-4.46-.19-.46-.28-1.11-.28-1.95,0-1.86,.93-4.36,2.79-7.52,1.11-1.86,3.02-7.34,5.71-16.44,.56-1.76,2.44-6.5,5.64-14.21,3.2-7.71,4.81-13.09,4.81-16.16,0-.09-.05-.14-.14-.14-.19,0-1.35,.56-3.48,1.67-8.17,4.83-14.72,8.08-19.64,9.75-2.32,.84-5.11,1.25-8.36,1.25-2.79,0-5.06-.37-6.82-1.11-4.65-2.14-6.96-6.27-6.96-12.4,0-4.08,1.06-9.24,3.2-15.46,.37-.93,.86-2.65,1.46-5.15,.6-2.51,1.28-4.39,2.02-5.64,.74-1.25,1.86-2.2,3.34-2.86,.74-.37,1.62-.56,2.65-.56,1.86,0,3.46,.7,4.81,2.09,1.34,1.39,2.02,3.16,2.02,5.29Z"/>
</svg>